<?xml version="1.0" encoding="UTF-8" standalone="no"?>
<!DOCTYPE svg PUBLIC "-//W3C//DTD SVG 1.1//EN" "http://www.w3.org/Graphics/SVG/1.1/DTD/svg11.dtd">
<svg width="100%" height="100%" viewBox="0 0 540 200" version="1.1" xmlns="http://www.w3.org/2000/svg" xmlns:xlink="http://www.w3.org/1999/xlink" xml:space="preserve" xmlns:serif="http://www.serif.com/" style="fill-rule:evenodd;clip-rule:evenodd;stroke-linejoin:round;stroke-miterlimit:2;">
    <g transform="matrix(2.46575,0,0,2.46575,-836.066,-1456.11)">
        <g id="Layer-1" serif:id="Layer 1">
            <g id="g617">
                <path id="path22" d="M403.797,645.863L397.318,645.863L397.318,621.99L403.797,621.99L403.797,645.863Z" style="fill:rgb(208,208,208);fill-rule:nonzero;"/>
                <path id="path34" d="M400.56,619.346C398.489,619.346 396.872,617.745 396.872,615.706C396.872,613.718 398.524,612.104 400.56,612.104C402.656,612.104 404.294,613.685 404.294,615.706C404.294,617.713 402.622,619.346 400.56,619.346" style="fill:rgb(208,208,208);fill-rule:nonzero;"/>
                <path id="path38" d="M468.195,646.358C464.536,646.358 461.492,645.095 459.395,642.706C457.484,640.534 456.427,637.458 456.427,634.053C456.427,630.547 457.67,627.346 459.942,625.034C462.2,622.723 465.346,621.453 468.783,621.453C471.479,621.453 473.656,622.045 475.731,623.209L475.512,628.547C473.828,627.277 471.684,626.55 469.476,626.55C465.671,626.55 462.908,629.581 462.908,633.753C462.908,637.105 464.614,641.015 469.427,641.015C471.734,641.015 473.711,640.081 475.07,639.291L476.768,643.899C475.044,645.079 471.624,646.358 468.195,646.358" style="fill:rgb(208,208,208);fill-rule:nonzero;"/>
                <path id="path42" d="M375.604,645.863L368.734,645.863L365.531,637.726L354.326,637.726L351.32,645.863L344.747,645.863L357.588,612.671L362.312,612.671L375.604,645.863ZM356.364,632.291L363.451,632.291L360.968,625.229C360.57,624.141 360.244,623.125 359.992,622.203C359.766,623.051 359.435,623.994 359.034,625.127L356.364,632.291Z" style="fill:rgb(208,208,208);fill-rule:nonzero;"/>
                <path id="path46" d="M395.362,621.989L388.878,621.989L383.108,637.463L377.435,621.989L370.903,621.989L379.624,643.264C380.283,644.917 381.283,645.865 383.176,645.865L385.43,645.865L395.362,621.989Z" style="fill:rgb(208,208,208);fill-rule:nonzero;"/>
                <path id="path50" d="M414.927,646.358C410.263,646.358 407.004,643.159 407.004,638.583C407.004,633.763 410.666,630.877 417.042,630.661L420.909,630.524L420.909,630.203C420.909,627.182 418.567,626.549 416.606,626.549C414.651,626.549 412.75,627.135 410.643,628.403L408.447,624.201C411.047,622.471 414.328,621.453 417.937,621.453C424.362,621.453 427.487,624.315 427.487,630.203L427.487,641.119C427.487,643.219 427.669,644.631 428.037,645.866L424.297,645.866C422.703,645.866 422.083,645.227 421.609,643.957C419.703,645.569 417.513,646.358 414.927,646.358M420.909,635.179L417.846,635.27C413.939,635.387 413.49,636.966 413.49,638.138C413.49,640.002 414.802,641.114 416.999,641.114C418.542,641.114 419.859,640.666 420.909,639.786L420.909,635.179Z" style="fill:rgb(208,208,208);fill-rule:nonzero;"/>
                <path id="path54" d="M486.078,646.358C481.417,646.358 478.153,643.159 478.153,638.583C478.153,633.763 481.814,630.877 488.196,630.661L492.06,630.524L492.06,630.203C492.06,627.182 489.718,626.549 487.76,626.549C485.802,626.549 483.901,627.135 481.794,628.403L479.601,624.201C482.196,622.471 485.481,621.453 489.09,621.453C495.516,621.453 498.641,624.315 498.641,630.203L498.641,641.119C498.641,643.219 498.822,644.631 499.188,645.866L495.448,645.866C493.854,645.866 493.234,645.227 492.76,643.957C490.854,645.569 488.664,646.358 486.078,646.358M492.06,635.179L488.997,635.27C485.09,635.387 484.641,636.966 484.641,638.138C484.641,640.002 485.95,641.114 488.15,641.114C489.698,641.114 491.008,640.666 492.06,639.786L492.06,635.179Z" style="fill:rgb(208,208,208);fill-rule:nonzero;"/>
                <path id="path58" d="M453.547,645.863L447.063,645.863L447.063,631.88C447.063,628.57 446.08,627.091 443.891,627.091C442.187,627.091 440.344,627.848 438.255,629.414L438.255,645.863L431.776,645.863L431.776,621.99L434.255,621.99C436.143,621.99 437.323,622.714 437.859,624.192L437.893,624.318C440.647,622.337 443.134,621.453 445.907,621.453C449.601,621.453 453.546,623.727 453.546,630.107L453.547,645.863Z" style="fill:rgb(208,208,208);fill-rule:nonzero;"/>
                <path id="path62" d="M542.908,645.173C542.111,642.705 539.596,640.784 530.755,640.117C532.168,641.756 533.654,643.318 535.214,644.785L539.703,644.785C541.564,644.785 542.383,644.941 542.908,645.173" style="fill:rgb(208,208,208);fill-rule:nonzero;"/>
                <path id="path66" d="M508.984,619.664C508.572,629.232 513.697,638.872 530.593,640.101L530.76,640.116C522.177,630.147 516.393,617.382 514.072,606.754C514.072,606.754 509.359,610.911 508.984,619.663" style="fill:rgb(208,208,208);fill-rule:nonzero;"/>
                <path id="path70" d="M535.213,644.785C528.557,644.785 517.063,644.788 517.063,644.788C517.301,645.353 518.137,645.749 520.028,645.861C531.361,646.533 532.968,655.428 549.187,655.428C550.615,655.428 551.503,655.345 552.396,655.176C545.989,653.205 540.227,649.498 535.213,644.785" style="fill:rgb(208,208,208);fill-rule:nonzero;"/>
            </g>
        </g>
    </g>
</svg>
