<?xml version="1.0" encoding="UTF-8" standalone="no"?>
<!DOCTYPE svg PUBLIC "-//W3C//DTD SVG 1.1//EN" "http://www.w3.org/Graphics/SVG/1.1/DTD/svg11.dtd">
<svg width="100%" height="100%" viewBox="0 0 540 200" version="1.1" xmlns="http://www.w3.org/2000/svg" xmlns:xlink="http://www.w3.org/1999/xlink" xml:space="preserve" xmlns:serif="http://www.serif.com/" style="fill-rule:evenodd;clip-rule:evenodd;stroke-linejoin:round;stroke-miterlimit:2;">
    <g id="bloomberg">
        <g>
            <path d="M20,54L56.658,54C63.641,54 68.878,55.743 72.757,58.648C77.024,62.134 79.352,67.17 79.352,73.367C79.352,80.533 76.442,84.988 70.624,87.699L70.624,88.087C78.382,90.604 82.843,97.577 82.843,105.905C82.843,113.845 79.74,120.043 74.697,123.916C70.43,127.015 64.999,128.371 57.628,128.371L20,128.371L20,54ZM52.973,83.051C56.852,83.051 59.762,80.921 59.762,76.466C59.762,72.205 56.852,70.075 52.779,70.075L40.172,70.075L40.172,82.857L52.973,82.857L52.973,83.051ZM54.719,111.909C59.18,111.909 62.477,109.197 62.477,104.355C62.477,99.126 58.986,96.802 54.719,96.802L40.366,96.802L40.366,112.102L54.719,112.102L54.719,111.909Z" style="fill:rgb(208,208,208);fill-rule:nonzero;"/>
            <rect x="86.14" y="54" width="19.202" height="74.565" style="fill:rgb(208,208,208);"/>
            <path d="M109.222,102.031C109.222,85.182 120.083,73.948 136.958,73.948C153.832,73.948 164.5,85.375 164.5,102.031C164.5,118.881 153.832,130.114 136.958,130.114C120.083,130.114 109.222,118.881 109.222,102.031ZM145.298,102.031C145.298,92.735 142.389,86.925 136.57,86.925C130.751,86.925 128.036,92.735 128.036,102.031C128.036,111.328 130.751,117.332 136.57,117.332C142.389,117.138 145.298,111.328 145.298,102.031Z" style="fill:rgb(208,208,208);fill-rule:nonzero;"/>
            <path d="M166.634,102.031C166.634,85.182 177.495,73.948 194.37,73.948C211.244,73.948 221.718,85.182 221.718,102.031C221.718,118.881 211.05,130.114 194.176,130.114C177.495,130.114 166.634,118.881 166.634,102.031ZM202.71,102.031C202.71,92.735 199.801,86.925 193.982,86.925C188.163,86.925 185.448,92.735 185.448,102.031C185.448,111.328 188.163,117.332 193.982,117.332C199.801,117.138 202.71,111.328 202.71,102.031Z" style="fill:rgb(208,208,208);fill-rule:nonzero;"/>
            <path d="M225.597,75.304L243.442,75.304L243.442,83.245L243.83,83.245C247.321,77.047 252.17,73.755 259.928,73.755C266.717,73.755 271.76,77.047 274.281,82.857L274.669,82.857C278.936,75.885 284.561,73.755 291.156,73.755C303.569,73.755 308.806,82.857 308.806,95.059L308.806,128.371L290.186,128.371L290.186,98.351C290.186,92.929 288.44,89.442 283.785,89.442C279.13,89.442 276.803,93.703 276.803,99.513L276.803,128.371L258.183,128.371L258.183,98.351C258.183,92.929 256.437,89.442 251.782,89.442C247.127,89.442 244.799,93.703 244.799,99.513L244.799,128.371L225.597,128.371L225.597,75.304Z" style="fill:rgb(208,208,208);fill-rule:nonzero;"/>
            <path d="M332.275,121.399L332.081,121.399L332.081,128.371L314.237,128.371L314.237,54L332.857,54L332.857,80.727L333.245,80.727C336.736,76.079 341.585,73.561 348.374,73.561C361.757,73.561 369.516,85.569 369.516,101.644C369.516,119.656 361.175,130.114 347.21,130.114C341.391,130.114 335.379,127.403 332.275,121.399ZM350.314,101.45C350.314,92.929 347.21,87.312 341.585,87.312C335.767,87.312 332.275,92.929 332.275,101.45C332.275,109.972 335.961,115.588 341.585,115.588C347.21,115.588 350.314,110.166 350.314,101.45Z" style="fill:rgb(208,208,208);fill-rule:nonzero;"/>
            <path d="M371.649,101.838C371.649,85.182 382.705,73.755 398.61,73.755C406.562,73.755 412.575,76.273 417.23,80.727C423.437,86.731 426.152,96.027 425.958,106.873L390.269,106.873C391.045,113.458 394.149,116.944 399.773,116.944C403.071,116.944 405.98,115.395 407.144,111.909L425.182,111.909C422.079,124.11 412.575,130.114 399.192,130.114C382.705,129.92 371.649,118.687 371.649,101.838ZM390.269,96.221L407.338,96.221C406.95,89.83 403.459,86.537 398.998,86.537C393.761,86.344 390.851,90.023 390.269,96.221Z" style="fill:rgb(208,208,208);fill-rule:nonzero;"/>
            <path d="M447.1,84.407L447.488,84.407C451.367,77.047 456.41,74.142 462.81,74.142C464.362,74.142 465.332,74.336 465.914,74.723L465.914,90.992L465.526,90.992C454.47,89.055 448.069,94.284 448.069,106.292L448.069,128.565L429.255,128.565L429.255,75.304L447.1,75.304L447.1,84.407Z" style="fill:rgb(208,208,208);fill-rule:nonzero;"/>
            <path d="M467.853,128.565L485.892,128.565C486.667,130.889 488.995,133.019 493.456,133.019C499.469,133.019 501.602,129.339 501.602,123.723L501.602,119.849L501.214,119.849C498.305,123.335 494.232,125.853 488.413,125.853C476.969,125.853 466.884,117.332 466.884,100.676C466.884,85.375 475.03,73.561 487.443,73.561C494.62,73.561 498.887,76.466 501.796,80.921L502.184,80.921L502.184,75.111L520.029,75.111L520.029,121.205C520.029,129.727 517.119,136.312 512.658,140.185C508.003,144.252 501.408,145.995 493.844,145.995C479.491,146.189 469.599,140.379 467.853,128.565ZM502.378,99.901C502.378,93.316 499.275,87.893 493.844,87.893C488.607,87.893 485.31,92.541 485.31,99.901C485.31,107.067 488.607,112.102 493.844,112.102C499.081,112.102 502.378,106.873 502.378,99.901Z" style="fill:rgb(208,208,208);fill-rule:nonzero;"/>
        </g>
    </g>
</svg>
