<?xml version="1.0" encoding="UTF-8" standalone="no"?>
<!DOCTYPE svg PUBLIC "-//W3C//DTD SVG 1.1//EN" "http://www.w3.org/Graphics/SVG/1.1/DTD/svg11.dtd">
<svg width="100%" height="100%" viewBox="0 0 540 200" version="1.1" xmlns="http://www.w3.org/2000/svg" xmlns:xlink="http://www.w3.org/1999/xlink" xml:space="preserve" xmlns:serif="http://www.serif.com/" style="fill-rule:evenodd;clip-rule:evenodd;stroke-linejoin:round;stroke-miterlimit:2;">
    <g id="cisco">
        <g>
            <rect id="path268" x="203.988" y="126.336" width="13.331" height="52.76" style="fill:rgb(208,208,208);"/>
            <path id="use360" d="M324.807,141.454C324.271,141.176 319.985,138.637 313.609,138.637C304.974,138.637 298.999,144.63 298.999,152.71C298.999,160.55 304.725,166.795 313.609,166.795C319.875,166.795 324.233,164.311 324.807,163.995L324.807,178.156C323.152,178.624 318.604,180.033 312.65,180.033C297.664,180.033 284.52,169.709 284.52,152.71C284.52,136.955 296.427,125.4 312.65,125.4C318.925,125.4 323.553,126.922 324.807,127.293L324.807,141.454Z" style="fill:rgb(208,208,208);fill-rule:nonzero;"/>
            <path id="path284" d="M185.66,141.454C185.124,141.176 180.838,138.637 174.462,138.637C165.827,138.637 159.852,144.63 159.852,152.71C159.852,160.55 165.578,166.795 174.462,166.795C180.729,166.795 185.086,164.311 185.66,163.995L185.66,178.156C184.005,178.624 179.458,180.033 173.504,180.033C158.518,180.033 145.373,169.709 145.373,152.71C145.373,136.955 157.281,125.4 173.504,125.4C179.778,125.4 184.406,126.922 185.66,127.293L185.66,141.454Z" style="fill:rgb(208,208,208);fill-rule:nonzero;"/>
            <path id="path288" d="M366.744,138.835C358.835,138.835 352.961,145.051 352.961,152.71C352.961,160.385 358.835,166.597 366.744,166.597C374.644,166.597 380.535,160.385 380.535,152.71C380.535,145.051 374.644,138.835 366.744,138.835M394.659,152.71C394.659,167.803 382.992,180.032 366.744,180.032C350.495,180.032 338.845,167.803 338.845,152.71C338.845,137.642 350.495,125.399 366.744,125.399C382.992,125.399 394.659,137.642 394.659,152.71" style="fill:rgb(208,208,208);fill-rule:nonzero;"/>
            <path id="path292" d="M267.873,138.329C267.674,138.265 262.062,136.718 257.451,136.718C252.11,136.718 249.205,138.506 249.205,141.04C249.205,144.254 253.123,145.376 255.315,146.067L258.993,147.235C267.645,149.985 271.589,155.901 271.589,162.328C271.589,175.583 259.917,180.036 249.716,180.036C242.626,180.036 235.984,178.733 235.329,178.594L235.329,166.453C236.503,166.748 242.094,168.414 247.917,168.414C254.551,168.414 257.599,166.478 257.599,163.488C257.599,160.814 254.96,159.271 251.654,158.234C250.847,157.964 249.635,157.584 248.808,157.314C241.385,154.97 235.194,150.613 235.194,141.88C235.194,132.011 242.592,125.386 254.88,125.386C261.37,125.386 267.476,126.959 267.873,127.065L267.873,138.329Z" style="fill:rgb(208,208,208);fill-rule:nonzero;"/>
            <g id="g383">
                <path id="path296" d="M131.238,69.636C131.238,66 128.265,63.053 124.621,63.053C120.977,63.053 118,66 118,69.636L118,83.485C118,87.141 120.977,90.093 124.621,90.093C128.265,90.093 131.238,87.141 131.238,83.485L131.238,69.636Z" style="fill:rgb(208,208,208);fill-rule:nonzero;"/>
                <path id="path300" d="M167.591,51.458C167.591,47.822 164.618,44.866 160.974,44.866C157.326,44.866 154.353,47.822 154.353,51.458L154.353,83.487C154.353,87.143 157.326,90.091 160.974,90.091C164.618,90.091 167.591,87.143 167.591,83.487L167.591,51.458Z" style="fill:rgb(208,208,208);fill-rule:nonzero;"/>
                <path id="path304" d="M203.945,26.587C203.945,22.952 200.972,20 197.328,20C193.68,20 190.707,22.952 190.707,26.587L190.707,96.646C190.707,100.302 193.68,103.254 197.328,103.254C200.972,103.254 203.945,100.302 203.945,96.646L203.945,26.587Z" style="fill:rgb(208,208,208);fill-rule:nonzero;"/>
                <path id="path308" d="M240.298,51.458C240.298,47.822 237.325,44.866 233.681,44.866C230.033,44.866 227.06,47.822 227.06,51.458L227.06,83.487C227.06,87.143 230.033,90.091 233.681,90.091C237.325,90.091 240.298,87.143 240.298,83.487L240.298,51.458Z" style="fill:rgb(208,208,208);fill-rule:nonzero;"/>
                <path id="path312" d="M276.61,69.636C276.61,66 273.659,63.053 270.032,63.053C266.388,63.053 263.415,66 263.415,69.636L263.415,83.485C263.415,87.141 266.388,90.093 270.032,90.093C273.659,90.093 276.61,87.141 276.61,83.485L276.61,69.636Z" style="fill:rgb(208,208,208);fill-rule:nonzero;"/>
            </g>
            <g id="use385">
                <path id="path2961" serif:id="path296" d="M276.627,69.636C276.627,66 273.655,63.053 270.011,63.053C266.366,63.053 263.39,66 263.39,69.636L263.39,83.485C263.39,87.141 266.366,90.093 270.011,90.093C273.655,90.093 276.627,87.141 276.627,83.485L276.627,69.636Z" style="fill:rgb(208,208,208);fill-rule:nonzero;"/>
                <path id="path3001" serif:id="path300" d="M312.98,51.458C312.98,47.822 310.008,44.866 306.364,44.866C302.715,44.866 299.743,47.822 299.743,51.458L299.743,83.487C299.743,87.143 302.715,90.091 306.364,90.091C310.008,90.091 312.98,87.143 312.98,83.487L312.98,51.458Z" style="fill:rgb(208,208,208);fill-rule:nonzero;"/>
                <path id="path3041" serif:id="path304" d="M349.334,26.587C349.334,22.952 346.361,20 342.717,20C339.069,20 336.096,22.952 336.096,26.587L336.096,96.646C336.096,100.302 339.069,103.254 342.717,103.254C346.361,103.254 349.334,100.302 349.334,96.646L349.334,26.587Z" style="fill:rgb(208,208,208);fill-rule:nonzero;"/>
                <path id="path3081" serif:id="path308" d="M385.688,51.458C385.688,47.822 382.715,44.866 379.071,44.866C375.423,44.866 372.45,47.822 372.45,51.458L372.45,83.487C372.45,87.143 375.423,90.091 379.071,90.091C382.715,90.091 385.688,87.143 385.688,83.487L385.688,51.458Z" style="fill:rgb(208,208,208);fill-rule:nonzero;"/>
                <path id="path3121" serif:id="path312" d="M422,69.636C422,66 419.048,63.053 415.421,63.053C411.777,63.053 408.805,66 408.805,69.636L408.805,83.485C408.805,87.141 411.777,90.093 415.421,90.093C419.048,90.093 422,87.141 422,83.485L422,69.636Z" style="fill:rgb(208,208,208);fill-rule:nonzero;"/>
            </g>
        </g>
    </g>
</svg>
