<?xml version="1.0" encoding="UTF-8" standalone="no"?>
<!DOCTYPE svg PUBLIC "-//W3C//DTD SVG 1.1//EN" "http://www.w3.org/Graphics/SVG/1.1/DTD/svg11.dtd">
<svg width="100%" height="100%" viewBox="0 0 540 200" version="1.1" xmlns="http://www.w3.org/2000/svg" xmlns:xlink="http://www.w3.org/1999/xlink" xml:space="preserve" xmlns:serif="http://www.serif.com/" style="fill-rule:evenodd;clip-rule:evenodd;stroke-linejoin:round;stroke-miterlimit:2;">
    <g id="layer5" transform="matrix(0.195139,0,0,0.195139,122.601,-75.2645)">
        <g>
            <path id="path27116" d="M1555.9,1052.4L1636.11,742.4L1724.79,742.4C1724.79,742.4 1747.28,740.233 1758.85,749.4C1770.42,758.567 1773.7,772.733 1773.7,772.733L1821.88,922.753L1884.76,742.403L1970.58,742.403C1970.58,742.403 1991.92,742.403 2002.98,751.07C2014.04,759.736 2017.37,772.737 2017.37,772.737L2087.71,1052.41L2004.39,1052.41L1941.54,814.027L1875.57,995.747L1787.24,995.747C1787.24,995.747 1776.6,996.789 1766.42,989.913C1756.25,983.038 1755.93,976.746 1755.93,976.746L1702.16,814.036L1640.46,1052.42L1555.9,1052.4Z" style="fill:rgb(217,217,217);"/>
            <path id="path27065" d="M729.66,742.36L729.66,804.194L878.48,814.194L878.48,1052.36L964.433,1052.36L964.433,814.194L1113.25,804.194L1113.25,742.36L729.66,742.36Z" style="fill:rgb(217,217,217);"/>
            <path id="path27022" d="M482.33,742.36L327.33,1052.36L422.609,1052.36L449.685,995.36L622.505,995.36L648.962,1052.36L743.71,1052.36L596.66,762.69C596.66,762.69 591.856,752.021 583.523,747.252C575.19,742.484 566.421,742.356 566.421,742.356L482.327,742.356L482.33,742.36ZM534.955,809.303L591.916,932.363L477.106,932.363L534.954,809.303L534.955,809.303Z" style="fill:rgb(217,217,217);"/>
            <path id="path26992" d="M0,742.36L0,1052.36L261.67,1052.36L297.337,981.027L89.667,981.027L89.667,742.357L0,742.36Z" style="fill:rgb(217,217,217);"/>
            <path id="path27070" d="M1255.3,742.36L1100.3,1052.36L1195.58,1052.36L1222.65,995.36L1395.48,995.36L1421.93,1052.36L1516.68,1052.36L1369.63,762.69C1369.63,762.69 1364.83,752.021 1356.49,747.252C1348.16,742.484 1339.39,742.356 1339.39,742.356L1255.3,742.356L1255.3,742.36ZM1307.92,809.303L1364.89,932.363L1250.08,932.363L1307.92,809.303L1307.92,809.303Z" style="fill:rgb(217,217,217);"/>
        </g>
        <g>
            <path id="path27278" d="M-532.68,841.98L-463.894,822.332C-463.894,822.332 -464.631,817.738 -467.097,815.483C-469.564,813.228 -474,811.833 -474,811.833L-569.605,777.105C-569.605,777.105 -572.64,776.085 -574.858,777.313C-577.075,778.542 -576.997,781.733 -576.997,781.733L-576.997,826.192C-576.997,826.192 -577.235,830.448 -571.07,839.99C-564.904,849.53 -550.3,847.101 -550.3,847.101L-532.68,841.98Z" style="fill:white;"/>
            <path id="path27260" d="M-258.85,734.71L-194.864,698.862C-194.864,698.862 -193.901,692.668 -196.367,690.413C-198.834,688.158 -201.77,687.463 -201.77,687.463L-478.11,588.849C-478.11,588.849 -481.145,587.829 -483.363,589.057C-485.58,590.286 -485.502,593.477 -485.502,593.477L-485.502,631.81C-485.502,631.81 -485.54,640.692 -479.375,650.233C-473.209,659.773 -463.205,662.244 -463.205,662.244L-258.85,734.71Z" style="fill:white;"/>
            <path id="path27258" d="M-258.85,846.29L-194.864,813.142C-194.864,813.142 -193.501,804.748 -195.967,802.493C-198.434,800.238 -201.77,799.044 -201.77,799.044L-569.61,665.434C-569.61,665.434 -572.645,664.413 -574.863,665.641C-577.08,666.87 -577.002,670.061 -577.002,670.061L-577.002,708.394C-577.002,708.394 -577.04,717.276 -570.875,726.817C-564.709,736.358 -554.705,738.828 -554.705,738.828L-258.85,846.29Z" style="fill:white;"/>
        </g>
        <g>
            <path id="path27194" d="M-201.77,687.46C-201.77,687.46 -198.035,688.026 -194.867,691.109C-191.699,694.192 -191.664,697.959 -191.664,697.959L-191.664,748.713C-191.664,748.713 -191.816,755.647 -194.66,761.883C-197.505,768.119 -201.67,769.594 -201.67,769.594L-210.337,772.742L-486.497,873.052C-486.497,873.052 -487.825,873.462 -489.552,873.462C-491.28,873.462 -492.608,873.052 -492.608,873.052L-569.551,845.103C-569.551,845.103 -571.46,844.659 -574.168,840.416C-577.218,835.656 -576.998,826.206 -576.998,826.206C-576.998,826.206 -576.52,831.051 -573.781,833.351C-571.043,835.652 -563.744,833.128 -563.744,833.128L-210.334,704.758C-210.334,704.758 -196.301,699.033 -196.301,693.217C-196.301,689.201 -201.768,687.476 -201.768,687.476L-201.77,687.46Z" style="fill:rgb(217,217,217);"/>
            <path id="path27140" d="M-201.77,799.04C-201.77,799.04 -198.035,799.606 -194.867,802.689C-191.699,805.772 -191.664,809.539 -191.664,809.539L-191.664,860.293C-191.664,860.293 -191.816,867.227 -194.66,873.463C-197.505,879.699 -201.67,881.174 -201.67,881.174L-210.337,884.322L-486.497,984.632L-486.497,916.632L-210.337,816.322C-210.337,816.322 -196.304,810.597 -196.304,804.781C-196.304,800.765 -201.77,799.04 -201.77,799.04L-201.77,799.04Z" style="fill:rgb(217,217,217);"/>
            <path id="path27142" d="M-338.86,977.68C-336.217,980.323 -336.217,986.14 -336.217,986.14L-336.217,1024.09C-336.217,1024.09 -336.369,1031.03 -339.214,1037.26C-342.058,1043.5 -346.223,1044.97 -346.223,1044.97L-354.89,1048.12L-486.5,1095.93L-486.5,1027.93L-354.89,980.122C-354.89,980.122 -341.503,975.037 -338.86,977.68L-338.86,977.68Z" style="fill:rgb(217,217,217);"/>
            <path id="path27168" d="M-423.76,1119.6C-421.117,1122.24 -421.117,1128.06 -421.117,1128.06L-421.117,1166.01C-421.117,1166.01 -421.269,1172.95 -424.114,1179.18C-426.958,1185.42 -431.123,1186.89 -431.123,1186.89L-439.79,1190.04L-486.5,1207.85L-486.5,1139.85L-439.79,1122.04C-439.79,1122.04 -426.403,1116.96 -423.76,1119.6L-423.76,1119.6Z" style="fill:rgb(217,217,217);"/>
        </g>
    </g>
</svg>
