<?xml version="1.0" encoding="UTF-8" standalone="no"?>
<!DOCTYPE svg PUBLIC "-//W3C//DTD SVG 1.1//EN" "http://www.w3.org/Graphics/SVG/1.1/DTD/svg11.dtd">
<svg width="100%" height="100%" viewBox="0 0 540 200" version="1.1" xmlns="http://www.w3.org/2000/svg" xmlns:xlink="http://www.w3.org/1999/xlink" xml:space="preserve" xmlns:serif="http://www.serif.com/" style="fill-rule:evenodd;clip-rule:evenodd;stroke-linejoin:round;stroke-miterlimit:2;">
    <g id="mashable">
        <path id="path13736" d="M93.747,141.475L93.747,85.615L72.578,141.475L62.993,141.475L41.686,85.615L41.686,141.475L20,141.475L20,57L50.133,57L67.786,103.611L85.3,57L115.434,57L115.434,141.475L93.747,141.475Z" style="fill:rgb(208,208,208);fill-rule:nonzero;"/>
        <path id="path13748" d="M158.527,141.476L158.527,135.396C154.752,139.951 147.425,143 139.616,143C130.29,143 118.688,136.539 118.688,122.855C118.688,108.046 130.29,103.092 139.616,103.092C147.684,103.092 154.873,105.759 158.527,110.315L158.527,104.235C158.527,98.918 153.993,95.246 146.167,95.246C140.116,95.246 134.065,97.653 129.152,101.828L121.964,88.282C129.79,81.562 140.254,78.79 149.58,78.79C164.199,78.79 177.938,84.229 177.938,103.231L177.938,141.476L158.527,141.476ZM158.527,125.765L158.527,120.327C156.51,117.417 151.977,116.014 147.684,116.014C142.65,116.014 137.979,118.3 137.979,123.115C137.979,127.931 142.65,130.2 147.684,130.2C151.977,130.2 156.51,128.693 158.527,125.765" style="fill:rgb(208,208,208);fill-rule:nonzero;"/>
        <path id="path13752" d="M179.317,133.498L187.385,119.571C191.919,123.625 201.624,127.799 208.813,127.799C214.605,127.799 217.001,126.153 217.001,123.486C217.001,115.899 181.593,123.746 181.593,98.925C181.593,88.151 190.919,78.78 207.675,78.78C218.018,78.78 226.586,82.071 233.137,86.886L225.707,100.691C222.052,97.14 215.122,93.988 207.813,93.988C203.262,93.988 200.245,95.755 200.245,98.162C200.245,104.866 235.533,97.903 235.533,122.984C235.533,134.641 225.327,142.99 207.934,142.99C196.97,142.99 185.747,139.318 179.317,133.498" style="fill:rgb(208,208,208);fill-rule:nonzero;"/>
        <path id="path13756" d="M279.269,141.476L279.269,105.881C279.269,98.415 275.356,96.008 269.185,96.008C263.513,96.008 259.738,99.177 257.462,101.966L257.462,141.476L238.051,141.476L238.051,57L257.462,57L257.462,87.78C261.117,83.467 268.305,78.79 278.511,78.79C292.371,78.79 298.68,86.637 298.68,97.913L298.68,141.476L279.269,141.476Z" style="fill:rgb(208,208,208);fill-rule:nonzero;"/>
        <path id="path13760" d="M341.281,141.476L341.281,135.396C337.505,139.951 330.179,143 322.37,143C313.043,143 301.442,136.539 301.442,122.855C301.442,108.046 313.043,103.092 322.37,103.092C330.437,103.092 337.626,105.759 341.281,110.315L341.281,104.235C341.281,98.918 336.747,95.246 328.92,95.246C322.87,95.246 316.819,97.653 311.906,101.828L304.717,88.282C312.544,81.562 323.007,78.79 332.334,78.79C346.952,78.79 360.691,84.229 360.691,103.231L360.691,141.476L341.281,141.476ZM341.281,125.765L341.281,120.327C339.264,117.417 334.73,116.014 330.437,116.014C325.404,116.014 320.732,118.3 320.732,123.115C320.732,127.931 325.404,130.2 330.437,130.2C334.73,130.2 339.264,128.693 341.281,125.765" style="fill:rgb(208,208,208);fill-rule:nonzero;"/>
        <path id="path13764" d="M367.363,141.476L367.363,57L386.774,57L386.774,87.52C391.566,81.441 398.117,78.79 404.805,78.79C420.062,78.79 431.646,90.811 431.646,110.835C431.646,131.603 419.803,143 404.805,143C397.996,143 391.825,140.211 386.774,134.391L386.774,141.476L367.363,141.476ZM398.375,125.765C406.064,125.765 411.856,120.067 411.856,110.835C411.856,101.706 406.064,96.008 398.375,96.008C394.221,96.008 389.17,98.294 386.774,101.585L386.774,120.327C389.17,123.618 394.221,125.765 398.375,125.765" style="fill:rgb(208,208,208);fill-rule:nonzero;"/>
        <rect id="path13766" x="434.42" y="57.002" width="19.411" height="84.475" style="fill:rgb(208,208,208);"/>
        <path id="path13778" d="M456.596,110.825C456.596,93.088 469.835,78.781 488.867,78.781C506.899,78.781 520,92.084 520,112.852L520,117.286L476.645,117.286C478.024,122.725 483.075,127.298 491.884,127.298C496.176,127.298 503.244,125.392 506.761,122.101L515.208,134.884C509.157,140.341 499.072,142.991 489.746,142.991C470.973,142.991 456.596,130.71 456.596,110.825M488.867,94.491C480.42,94.491 477.144,99.549 476.386,103.983L501.468,103.983C500.968,99.67 497.814,94.491 488.867,94.491" style="fill:rgb(208,208,208);fill-rule:nonzero;"/>
    </g>
</svg>
