<?xml version="1.0" encoding="UTF-8" standalone="no"?>
<!DOCTYPE svg PUBLIC "-//W3C//DTD SVG 1.1//EN" "http://www.w3.org/Graphics/SVG/1.1/DTD/svg11.dtd">
<svg width="100%" height="100%" viewBox="0 0 540 200" version="1.1" xmlns="http://www.w3.org/2000/svg" xmlns:xlink="http://www.w3.org/1999/xlink" xml:space="preserve" xmlns:serif="http://www.serif.com/" style="fill-rule:evenodd;clip-rule:evenodd;stroke-linejoin:round;stroke-miterlimit:2;">
    <g transform="matrix(2.50022,0,0,2.50032,19.9781,19.9897)">
        <path d="M15.309,46.947C5.316,40.842 1.914,38.105 1.701,33.894C1.701,33.052 1.914,31.579 2.126,30.737L1.276,30.105C0.425,31.368 0,32.842 0,34.316C0,36.631 0.85,38.526 1.701,39.789C3.19,41.895 4.678,43.368 8.293,45.895C12.12,48.842 14.884,52.211 16.372,55.789L17.01,55.789L17.01,51.789C22.326,54.737 27.003,57.473 29.342,62.526L29.98,62.526C28.917,57.473 25.94,53.474 15.309,46.947ZM44.651,33.474C42.525,34.526 41.037,35.789 39.548,37.684L44.013,37.474C44.226,35.368 44.439,34.105 44.651,33.474ZM60.811,49.263C61.236,48.21 61.661,46.947 61.661,45.895L55.07,45.474C54.857,47.158 54.432,48.632 53.794,50.105L60.811,49.263ZM53.794,33.052C54.219,34.316 54.645,35.579 54.857,36.631L58.684,36.421C57.409,34.947 55.708,33.894 53.794,33.052ZM52.093,36.842C51.668,35.368 51.03,33.684 50.179,32.21L48.053,32.21C47.415,33.684 46.99,35.368 46.565,37.053L52.093,36.842ZM55.282,38.947C55.495,40.631 55.495,42.105 55.495,43.579L61.874,43.158C61.661,41.684 61.236,40.421 60.598,39.158L55.282,38.947ZM53.156,43.579C53.156,41.895 52.944,40.421 52.518,38.737L46.14,38.526C45.714,40.421 45.502,42.316 45.289,44L53.156,43.579ZM54.007,30.105L54.857,29.052L53.794,27.579L54.007,27.158L57.196,28.842L56.558,30.947C56.983,31.158 57.621,31.579 58.259,32L60.385,28.632L55.07,25.895L43.163,25.895L33.382,31.579C35.296,32.842 36.784,34.105 38.06,35.579C40.611,31.789 45.289,29.474 49.754,29.474C50.817,29.474 52.518,29.684 54.007,30.105ZM29.98,29.895L35.296,26.737C34.233,26.105 32.957,25.895 31.681,25.895C29.767,25.895 26.791,26.737 25.302,26.947C25.94,27.368 28.492,28.842 29.98,29.895ZM31.256,17.894C29.342,17.474 28.279,17.684 27.216,18.737C27.854,18.947 28.492,19.158 29.13,19.158C30.193,18.947 30.831,18.316 31.256,17.894ZM61.449,62.737L60.811,62.737C60.811,58.947 57.409,58.105 53.794,58.105L42.525,58.105C42.95,60 42.95,62.105 42.738,64L42.1,64C41.037,55.789 36.359,51.579 29.767,47.158L29.767,50.947L29.13,50.947C27.429,46.947 23.601,43.368 19.774,40.842L16.798,38.737L16.798,42.737L16.159,42.737C14.671,38.737 11.695,35.579 7.867,32C3.615,28.21 1.701,25.895 0.85,23.158C0.213,21.474 0,20.211 0,18.526C0,15.368 1.489,12.421 3.615,11.368L3.615,12.842C2.551,14.105 2.126,15.789 2.126,17.474C2.126,18.947 2.551,20.842 3.19,22.316C5.741,26.947 13.821,32.632 19.136,36C35.508,46.737 38.698,48.632 41.462,54.526C41.674,55.158 42.1,56 42.312,57.053C44.651,56.631 53.156,55.368 54.857,55.158C55.07,55.158 55.708,54.947 56.133,54.947C57.621,54.105 58.684,52.842 59.748,51.368L53.581,50.947C53.369,51.579 52.944,52.211 52.731,52.631L52.306,52.631L52.731,50.737L51.03,50.526L51.03,50.105L52.731,49.894C53.156,48.21 53.156,46.526 53.156,45.052L45.289,44.632L45.289,46.947L44.864,46.947L44.439,44.632L42.738,44.632L42.738,44.21L44.439,44.21C44.226,42.316 44.226,40.421 44.226,38.526L39.548,38.316L40.186,39.579C41.249,42.316 41.037,45.474 40.611,46.947L39.973,46.947C39.973,45.263 39.336,43.158 38.698,41.895C37.422,38.947 34.658,36.211 29.767,33.263L29.767,37.053L29.13,37.053C27.641,32 23.601,29.263 17.648,26.316C12.758,23.789 11.269,20.842 11.482,16.21L13.183,17.263C13.608,21.474 17.01,24 20.412,24C22.538,24 24.452,23.789 26.365,23.368C29.13,22.737 31.468,22.316 33.595,23.158L33.595,20.631L31.894,20.631C31.256,21.053 30.193,21.684 28.492,21.684C26.578,21.684 22.963,20.631 22.963,16.632C22.963,13.052 25.94,12.632 28.279,12.632L32.532,12.632C33.169,12.632 33.382,12.421 33.807,12.21C34.02,12 34.233,11.579 34.233,11.368L34.233,6.947L22.963,6.947L22.963,11.368L18.711,9.684L18.711,8.631L20.837,8.631L20.837,6.947L13.396,6.947L13.396,3.368L10.844,3.368C9.355,3.368 7.867,4.211 7.654,6.105C7.654,8 8.293,9.473 10.206,9.473L10.631,9.473L10.631,11.579L10.206,11.579C7.017,11.579 4.465,9.263 4.465,5.895C4.465,2.526 7.229,0 10.844,0L16.372,0L16.372,3.579L37.635,3.579L37.635,9.053C37.635,9.895 37.635,11.158 37.422,12C37.422,12.632 37.209,13.474 36.146,14.316C35.508,14.737 34.445,14.947 32.957,14.947C31.681,14.947 30.405,14.947 29.13,14.737C26.791,14.526 25.94,15.579 25.94,16.421L25.94,17.052C27.003,16.21 28.704,15.579 30.405,16.21C33.595,17.263 34.445,17.263 36.146,16L36.359,16.421C36.146,16.632 35.934,17.052 35.296,17.474L36.784,17.474L36.784,25.895L41.674,22.947L55.282,22.947L61.874,26.316C62.724,26.737 62.937,27.368 63.15,28C63.15,28.632 63.15,29.474 62.724,29.895C62.512,30.316 61.023,32.842 60.173,34.105C62.724,36.842 64,40.21 64,43.789C64,47.368 62.724,51.789 58.472,55.158C60.173,55.579 61.449,56.631 62.512,58.105L61.449,62.737Z" style="fill:rgb(208,208,208);"/>
    </g>
    <g transform="matrix(2.50022,0,0,2.50032,19.9781,19.9897)">
        <path d="M139.378,47.403L133.866,47.403L133.866,31.311L139.378,31.311C146.726,31.311 149.481,33.609 149.481,39.126C149.022,44.644 145.348,47.403 139.378,47.403ZM138.918,15.678C143.511,15.678 146.266,16.598 146.266,21.196C146.266,26.253 142.133,27.633 137.54,27.633L133.407,27.633L133.407,15.678L138.918,15.678ZM147.644,29.012C151.777,28.552 155.451,25.334 155.451,20.735C155.451,16.598 153.614,12 141.215,12L120.548,12L120.548,12.46C121.007,12.46 122.385,13.379 122.844,13.839C124.222,15.218 124.681,17.057 124.681,19.816L124.681,51.081L141.674,51.081C151.318,51.081 157.748,47.403 157.748,39.126C158.207,32.23 153.155,29.472 147.644,29.012ZM89.318,15.678L95.289,15.678C100.34,15.678 103.096,17.057 103.096,22.575C103.096,27.173 99.882,30.391 94.37,30.391L89.777,30.391L89.777,15.678L89.318,15.678ZM105.393,51.081L116.414,51.081L102.177,32.69C107.688,31.311 112.281,28.092 112.281,22.116C112.281,15.218 108.148,12 98.045,12L76,12L76,12.46C76.918,12.92 77.837,13.379 78.296,13.839C79.674,15.218 80.133,17.517 80.133,20.735L80.133,51.081L89.318,51.081L89.318,33.609L92.533,33.609L105.393,51.081ZM194.489,17.517C196.785,18.896 197.703,20.735 197.703,20.735L198.163,20.735L200,14.299C200,14.299 196.326,12 188.059,12C175.199,12 166.014,18.437 166.014,32.23C166.014,47.863 177.496,52 187.141,52C196.326,52 200,49.242 200,49.242L200,44.644C200,44.644 196.785,47.863 189.896,47.863C183.926,47.863 175.659,45.104 175.659,32.23C175.659,20.276 180.711,16.598 187.6,16.598C191.274,15.678 193.111,16.598 194.489,17.517Z" style="fill:rgb(208,208,208);"/>
    </g>
</svg>
