<?xml version="1.0" encoding="UTF-8" standalone="no"?>
<!DOCTYPE svg PUBLIC "-//W3C//DTD SVG 1.1//EN" "http://www.w3.org/Graphics/SVG/1.1/DTD/svg11.dtd">
<svg width="100%" height="100%" viewBox="0 0 540 200" version="1.1" xmlns="http://www.w3.org/2000/svg" xmlns:xlink="http://www.w3.org/1999/xlink" xml:space="preserve" xmlns:serif="http://www.serif.com/" style="fill-rule:evenodd;clip-rule:evenodd;stroke-linejoin:round;stroke-miterlimit:2;">
    <g id="redbull">
        <g id="redbull1" serif:id="redbull">
            <path id="path3623" d="M401.199,128.019L401.199,88.112L379.225,88.112L379.225,132.263C379.225,147.196 394.685,159.318 413.767,159.318C432.836,159.318 448.309,147.196 448.309,132.263L448.296,88.112L426.497,88.112L426.484,128.019C426.484,134.668 420.835,140.06 413.848,140.06C406.861,140.06 401.199,134.668 401.199,128.019" style="fill:rgb(208,208,208);"/>
            <rect id="path3625" x="497.877" y="40.682" width="22.123" height="116.154" style="fill:rgb(208,208,208);"/>
            <rect id="path3627" x="460.457" y="40.682" width="22.136" height="116.154" style="fill:rgb(208,208,208);"/>
            <path id="path3631" d="M55.603,65.049L43.576,65.049L43.576,156.837L20.021,156.837L20.021,46.008L60.496,46.008C78.915,46.008 93.848,60.671 93.848,78.739C93.848,94.132 83.024,107.037 68.442,110.538L100.957,156.837L73.212,156.837L49.698,120.552L49.698,94.05L55.157,94.037C63.861,94.037 70.901,87.55 70.901,79.536C70.901,71.536 64.293,65.049 55.603,65.049" style="fill:rgb(208,208,208);"/>
            <path id="path3635" d="M121.689,114.261C121.689,106.787 127.743,100.747 135.203,100.747C142.676,100.747 148.73,106.787 148.73,114.261L121.689,114.261ZM170.515,126.991C170.664,125.477 170.731,123.923 170.718,122.342C171.056,98.382 155.204,85.246 135.014,85.246C114.81,85.246 98.444,101.828 98.444,122.275C98.444,142.721 114.824,159.317 135.014,159.317C150.447,159.317 162.461,152.343 168.664,141.411L150.703,133.126C148.406,138.073 143.054,141.546 136.824,141.532C128.216,141.519 121.851,135.208 121.77,127.748L121.77,126.991L170.515,126.991Z" style="fill:rgb(208,208,208);fill-rule:nonzero;"/>
            <path id="path3639" d="M220.559,139.856C211.586,139.856 204.315,131.897 204.315,122.072C204.315,112.261 211.586,104.301 220.559,104.301C229.532,104.301 236.803,112.261 236.803,122.072C236.803,131.897 229.532,139.856 220.559,139.856M258.601,156.844L258.574,40.69L236.519,40.69L236.519,95.652C230.654,89.841 222.829,86.314 214.275,86.314C196.004,86.314 181.193,102.517 181.193,122.518C181.193,142.505 196.004,158.709 214.275,158.709C222.91,158.709 230.722,155.046 236.614,149.114L236.614,156.844L258.601,156.844Z" style="fill:rgb(208,208,208);fill-rule:nonzero;"/>
            <path id="path3643" d="M333.625,137.591L312.462,137.591L312.462,65.048L327.219,65.048C333.706,65.048 338.963,70.981 338.963,77.467C338.963,83.954 333.706,89.211 327.219,89.211L319.529,89.211L319.529,109.131L333.625,109.131C341.49,109.131 347.422,115.469 347.422,123.334C347.139,131.456 342.166,137.064 333.625,137.591M352.152,96.509C358.207,90.86 361.91,83.292 361.91,74.981C361.91,67.44 359.004,60.521 353.936,55.088C348.652,49.277 339.314,46.007 326.692,46.007L288.866,46.007L288.866,156.836L337.719,156.836C356.436,156.525 371.518,142.402 371.518,125.05C371.518,112.442 367.072,103.441 352.152,96.509" style="fill:rgb(208,208,208);fill-rule:nonzero;"/>
        </g>
    </g>
</svg>
