<?xml version="1.0" encoding="UTF-8" standalone="no"?>
<!DOCTYPE svg PUBLIC "-//W3C//DTD SVG 1.1//EN" "http://www.w3.org/Graphics/SVG/1.1/DTD/svg11.dtd">
<svg width="100%" height="100%" viewBox="0 0 540 200" version="1.1" xmlns="http://www.w3.org/2000/svg" xmlns:xlink="http://www.w3.org/1999/xlink" xml:space="preserve" xmlns:serif="http://www.serif.com/" style="fill-rule:evenodd;clip-rule:evenodd;stroke-linejoin:round;stroke-miterlimit:2;">
    <g id="student-price-card">
        <path d="M162.01,116.002C158.447,117.682 154.521,118.452 150.587,118.242C145.272,118.461 140.008,117.114 135.451,114.37C131.517,111.74 128.028,108.499 125.115,104.77L101.5,122.882C103.691,125.67 106.121,128.261 108.764,130.625C111.963,133.498 115.523,135.94 119.355,137.889C123.94,140.22 128.77,142.034 133.755,143.297C139.791,144.812 145.996,145.544 152.219,145.473C159.281,145.61 166.321,144.638 173.082,142.593C178.413,140.976 183.342,138.249 187.545,134.593C191.253,131.253 194.106,127.072 195.865,122.402C197.662,117.439 198.54,112.191 198.457,106.914C198.517,102.842 197.956,98.785 196.793,94.883C195.652,91.237 193.815,87.846 191.385,84.899C188.539,81.565 185.127,78.759 181.306,76.611C176.386,73.848 171.197,71.596 165.818,69.891L149.499,64.451C147.144,63.784 144.96,62.616 143.099,61.028C141.654,59.547 140.899,57.524 141.019,55.46C140.999,53.105 142.091,50.873 143.963,49.444C146.518,47.674 149.597,46.817 152.698,47.012C156.795,46.836 160.873,47.672 164.57,49.444C167.651,51.13 170.447,53.29 172.858,55.844L191.577,36.228C189.669,33.958 187.524,31.898 185.178,30.084C182.556,28.041 179.712,26.302 176.698,24.901C173.108,23.303 169.352,22.112 165.498,21.349C160.715,20.399 155.847,19.948 150.971,20.005C145.656,19.989 140.37,20.776 135.291,22.341C130.444,23.815 125.91,26.169 121.915,29.284C118.008,32.339 114.837,36.232 112.636,40.676C110.285,45.607 109.123,51.022 109.244,56.484C109.159,61.053 109.918,65.598 111.484,69.891C112.958,73.703 115.128,77.208 117.884,80.227C120.658,83.295 123.897,85.908 127.483,87.971C131.382,90.231 135.512,92.066 139.803,93.443L154.202,98.306C157.41,99.261 160.445,100.719 163.194,102.626C165.151,104.074 166.267,106.402 166.17,108.834C166.286,111.822 164.662,114.62 162.01,116.002ZM281.719,113.41C287.678,111.165 293.121,107.736 297.718,103.33C302.099,99.065 305.505,93.901 307.702,88.195C310.014,82.139 311.165,75.701 311.094,69.219C311.165,62.737 310.014,56.3 307.702,50.244C305.488,44.528 302.084,39.347 297.718,35.044C293.096,30.685 287.629,27.319 281.655,25.157C274.66,22.586 267.251,21.328 259.799,21.445L213.497,21.445L213.497,143.873L246.136,143.873L246.136,117.314L259.799,117.314C267.238,117.439 274.636,116.191 281.623,113.634L281.719,113.41ZM246.136,89.699L246.136,48.804L258.295,48.804C261.501,48.71 264.694,49.231 267.703,50.34C270.142,51.25 272.334,52.718 274.103,54.628C275.742,56.469 276.945,58.657 277.623,61.028C278.374,63.714 278.741,66.494 278.711,69.283C278.943,74.547 277.311,79.727 274.103,83.907C271.031,87.576 265.804,89.411 258.423,89.411L246.136,89.411L246.136,89.699ZM402.953,112.098C397.503,115.593 391.079,117.263 384.617,116.866C376.142,117.041 368.029,113.367 362.57,106.882C359.912,103.673 357.901,99.978 356.65,96.002C355.24,91.641 354.538,87.082 354.57,82.499C354.538,77.923 355.207,73.369 356.554,68.995C357.752,65.03 359.708,61.335 362.314,58.116C367.484,51.729 375.347,48.105 383.561,48.324C386.996,48.279 390.42,48.71 393.737,49.604C396.453,50.309 399.059,51.386 401.481,52.804C403.58,54.086 405.487,55.659 407.144,57.476C408.644,59.146 410.024,60.922 411.272,62.787L435.912,46.052C433.333,42.311 430.373,38.847 427.08,35.716C423.648,32.423 419.783,29.614 415.592,27.365C410.968,24.953 406.054,23.146 400.969,21.989C395.033,20.603 388.952,19.937 382.857,20.005C358.242,19.914 335.847,34.625 326.155,57.252C322.688,65.258 320.933,73.902 321.003,82.627C320.744,108.223 336.407,131.449 360.234,140.801C368.014,143.885 376.313,145.449 384.681,145.409C395.657,145.727 406.543,143.319 416.36,138.401C425.622,133.161 433.272,125.479 438.472,116.194L413.384,100.002C410.861,104.804 407.284,108.972 402.921,112.194L402.953,112.098ZM118.555,168.896C118.048,168.305 117.442,167.807 116.764,167.424C115.87,166.923 114.926,166.515 113.948,166.208L111.1,165.248C110.656,165.093 110.252,164.842 109.916,164.512C109.665,164.246 109.538,163.886 109.564,163.52C109.561,163.092 109.764,162.687 110.108,162.433C110.577,162.112 111.14,161.954 111.708,161.985C112.438,161.959 113.163,162.113 113.82,162.433C114.366,162.726 114.863,163.104 115.292,163.552L118.491,160.033C118.157,159.632 117.782,159.267 117.372,158.945C116.896,158.588 116.38,158.287 115.836,158.049C115.175,157.801 114.487,157.629 113.788,157.537C112.934,157.374 112.065,157.299 111.196,157.313C110.252,157.311 109.314,157.451 108.412,157.729C107.542,157.993 106.728,158.417 106.012,158.977C105.31,159.525 104.741,160.225 104.348,161.025C103.929,161.914 103.721,162.889 103.74,163.872C103.729,164.691 103.87,165.505 104.156,166.272C104.411,166.955 104.791,167.584 105.276,168.128C105.774,168.686 106.357,169.161 107.004,169.536C107.704,169.934 108.444,170.256 109.212,170.496L111.804,171.36C112.383,171.517 112.934,171.765 113.436,172.096C113.794,172.354 113.998,172.776 113.98,173.216C114.021,173.769 113.732,174.297 113.244,174.56C112.598,174.835 111.894,174.945 111.196,174.88C110.283,174.893 109.384,174.649 108.604,174.176C107.825,173.751 107.122,173.2 106.524,172.544L102.3,175.744C102.685,176.249 103.114,176.72 103.58,177.152C104.159,177.673 104.804,178.114 105.5,178.464C106.326,178.879 107.195,179.201 108.092,179.424C109.138,179.686 110.213,179.815 111.292,179.808C112.559,179.834 113.822,179.661 115.036,179.296C115.989,179.013 116.872,178.534 117.628,177.888C118.3,177.284 118.816,176.527 119.131,175.68C119.461,174.789 119.624,173.846 119.611,172.896C119.614,172.169 119.506,171.447 119.291,170.752C119.166,170.092 118.917,169.463 118.555,168.896ZM120.795,162.497L126.587,162.497L126.587,179.456L132.443,179.456L132.443,162.497L138.235,162.497L138.235,157.601L120.699,157.601L120.795,162.497ZM153.338,170.944C153.364,171.12 153.377,171.297 153.377,171.475C153.377,173.476 151.731,175.123 149.729,175.123C148.654,175.123 147.631,174.647 146.939,173.824C146.31,173.002 146.003,171.977 146.075,170.944L146.075,157.601L140.251,157.601L140.251,171.008C140.216,172.334 140.455,173.652 140.955,174.88C141.399,175.927 142.078,176.857 142.939,177.6C143.816,178.356 144.84,178.922 145.947,179.264C148.422,179.99 151.055,179.99 153.53,179.264C154.637,178.921 155.66,178.355 156.538,177.6C157.388,176.854 158.055,175.924 158.49,174.88C158.961,173.635 159.169,172.306 159.098,170.976L159.098,157.601L153.37,157.601L153.37,170.976L153.338,170.944ZM179.418,160.609C178.399,159.589 177.178,158.793 175.834,158.273C174.435,157.791 172.961,157.564 171.482,157.601L163.098,157.601L163.098,179.488L171.578,179.488C173.072,179.508 174.557,179.259 175.962,178.752C177.27,178.271 178.467,177.531 179.482,176.576C180.495,175.614 181.291,174.447 181.818,173.152C182.937,170.216 182.937,166.968 181.818,164.032C181.295,162.727 180.499,161.548 179.482,160.577L179.418,160.609ZM175.098,172.992C174,174.111 172.472,174.706 170.906,174.624L168.986,174.624L168.986,162.497L170.938,162.497C172.473,162.394 173.983,162.94 175.098,164C177.139,166.543 177.139,170.194 175.098,172.736L175.098,172.992ZM191.321,172.256L199.257,172.256L199.257,167.552L191.353,167.552L191.353,162.401L200.953,162.401L200.953,157.601L185.53,157.601L185.53,179.488L201.337,179.488L201.337,174.496L191.353,174.496L191.321,172.256ZM218.649,168.576L204.921,157.249C204.812,157.186 204.678,157.186 204.569,157.249C204.535,157.319 204.535,157.402 204.569,157.473L204.569,179.648L210.073,179.648L210.073,168.512L223.8,179.808C223.881,179.924 224.011,179.995 224.152,180C224.187,179.929 224.187,179.847 224.152,179.776L224.152,157.601L218.713,157.601L218.713,168.576L218.649,168.576ZM226.296,162.529L232.088,162.529L232.088,179.488L237.944,179.488L237.944,162.465L243.736,162.465L243.736,157.601L226.296,157.601L226.296,162.593L226.296,162.529ZM269.271,160.065C268.444,159.276 267.464,158.666 266.391,158.273C265.163,157.817 263.861,157.59 262.551,157.601L254.295,157.601L254.295,179.488L260.151,179.488L260.151,174.72L262.615,174.72C263.955,174.752 265.29,174.535 266.551,174.08C267.623,173.685 268.603,173.075 269.431,172.288C270.204,171.56 270.815,170.677 271.223,169.696C272.048,167.511 272.048,165.098 271.223,162.913C270.846,161.832 270.234,160.848 269.431,160.033L269.271,160.065ZM264.983,168.8C264.231,169.488 263.209,169.805 262.199,169.664L260.023,169.664L260.023,162.465L262.199,162.465C262.767,162.454 263.332,162.552 263.863,162.753C264.29,162.92 264.673,163.182 264.983,163.52C265.269,163.854 265.477,164.248 265.591,164.672C265.726,165.151 265.791,165.647 265.783,166.144C265.827,167.075 265.543,167.992 264.983,168.736L264.983,168.8ZM290.774,170.368C291.505,169.07 291.88,167.602 291.862,166.112C291.874,164.954 291.668,163.803 291.254,162.721C290.81,161.682 290.144,160.754 289.302,160.001C288.476,159.212 287.495,158.602 286.423,158.209C285.19,157.775 283.889,157.569 282.583,157.601L274.295,157.601L274.295,179.488L280.151,179.488L280.151,174.4L282.359,174.4L285.559,179.392L291.958,179.392L288.054,173.184C289.286,172.534 290.308,171.546 290.998,170.336L290.774,170.368ZM285.111,168.768C284.381,169.503 283.356,169.868 282.327,169.76L280.119,169.76L280.119,162.465L282.295,162.465C282.862,162.456 283.427,162.553 283.959,162.753C284.383,162.91 284.765,163.162 285.079,163.488C285.361,163.812 285.569,164.195 285.687,164.608C285.821,165.087 285.886,165.583 285.879,166.08C285.932,167.022 285.649,167.953 285.079,168.704L285.111,168.768ZM294.902,179.456L300.758,179.456L300.758,157.601L295.03,157.601L295.03,179.52L294.902,179.456ZM318.39,173.792C317.439,174.406 316.32,174.708 315.19,174.656C313.674,174.692 312.222,174.031 311.254,172.864C310.782,172.298 310.424,171.646 310.198,170.944C309.952,170.158 309.833,169.337 309.846,168.512C309.841,167.699 309.959,166.89 310.198,166.112C310.414,165.413 310.762,164.762 311.222,164.192C312.147,163.046 313.557,162.394 315.03,162.433C315.634,162.426 316.237,162.501 316.822,162.657C317.317,162.792 317.791,162.996 318.23,163.264C318.598,163.494 318.932,163.774 319.222,164.096C319.489,164.399 319.735,164.719 319.958,165.056L324.309,161.857C323.851,161.186 323.326,160.564 322.741,160.001C322.119,159.408 321.419,158.903 320.662,158.497C319.843,158.057 318.972,157.724 318.07,157.505C317.021,157.261 315.946,157.143 314.87,157.153C310.481,157.236 306.544,159.936 304.886,164C304.274,165.436 303.969,166.984 303.99,168.544C303.917,173.134 306.721,177.309 310.998,178.976C312.392,179.532 313.881,179.815 315.382,179.808C317.344,179.868 319.29,179.439 321.046,178.56C322.697,177.624 324.059,176.251 324.981,174.592L320.374,171.68C319.927,172.536 319.292,173.28 318.518,173.856L318.39,173.792ZM332.821,172.224L340.853,172.224L340.853,167.552L332.917,167.552L332.917,162.401L342.517,162.401L342.517,157.601L327.157,157.601L327.157,179.488L342.965,179.488L342.965,174.496L333.045,174.496L332.821,172.224ZM367.092,173.824C366.142,174.438 365.023,174.74 363.892,174.688C363.119,174.698 362.353,174.534 361.652,174.208C361.01,173.895 360.443,173.448 359.988,172.896C359.517,172.329 359.159,171.678 358.932,170.976C358.686,170.19 358.568,169.369 358.58,168.544C358.575,167.731 358.693,166.922 358.932,166.144C359.149,165.445 359.497,164.794 359.956,164.224C360.882,163.078 362.291,162.426 363.764,162.465C364.369,162.458 364.972,162.533 365.556,162.689C366.052,162.823 366.526,163.028 366.964,163.296C367.332,163.526 367.666,163.806 367.956,164.128C368.224,164.431 368.47,164.751 368.692,165.088L373.012,161.889C372.554,161.218 372.029,160.596 371.444,160.033C370.821,159.44 370.122,158.935 369.364,158.529C368.546,158.089 367.675,157.756 366.772,157.537C365.723,157.293 364.649,157.175 363.572,157.185C359.087,157.147 355.008,159.853 353.301,164C352.69,165.436 352.384,166.984 352.405,168.544C352.359,173.126 355.154,177.286 359.412,178.976C360.845,179.501 362.367,179.74 363.892,179.68C365.854,179.74 367.801,179.311 369.556,178.432C371.207,177.496 372.569,176.123 373.492,174.464L369.012,171.584C368.56,172.455 367.914,173.211 367.124,173.792L367.092,173.824ZM384.34,157.057C384.28,157.022 384.207,157.022 384.148,157.057L373.492,179.456L379.22,179.456L380.02,177.6L388.212,177.6L389.044,179.456L395.219,179.456L384.628,157.057C384.63,157.045 384.631,157.034 384.631,157.022C384.631,156.928 384.561,156.847 384.468,156.833L384.34,157.057ZM381.876,173.248L384.084,168.096L386.324,173.248L381.876,173.248ZM413.459,170.4C414.145,169.112 414.486,167.668 414.451,166.208C414.462,165.05 414.255,163.899 413.843,162.817C413.445,161.793 412.834,160.866 412.051,160.097C411.224,159.308 410.244,158.698 409.171,158.305C407.912,157.838 406.577,157.61 405.235,157.633L396.915,157.633L396.915,179.52L402.771,179.52L402.771,174.4L404.979,174.4L408.179,179.424L414.579,179.424L410.675,173.216C411.888,172.548 412.886,171.549 413.555,170.336L413.459,170.4ZM407.795,168.8C407.065,169.535 406.041,169.9 405.011,169.792L402.835,169.792L402.835,162.465L405.011,162.465C405.579,162.456 406.143,162.553 406.675,162.753C407.099,162.91 407.482,163.162 407.795,163.488C408.078,163.812 408.285,164.195 408.403,164.608C408.538,165.087 408.602,165.583 408.595,166.08C408.646,167.022 408.362,167.952 407.795,168.704L407.795,168.8ZM433.842,160.545C432.828,159.589 431.63,158.849 430.322,158.369C428.917,157.862 427.432,157.612 425.938,157.633L417.459,157.633L417.459,179.52L425.938,179.52C427.432,179.54 428.917,179.291 430.322,178.784C431.63,178.303 432.828,177.563 433.842,176.608C434.855,175.646 435.652,174.479 436.178,173.184C437.298,170.248 437.298,167 436.178,164.064C435.692,162.744 434.928,161.544 433.938,160.545L433.842,160.545ZM429.522,172.896C428.424,174.015 426.896,174.61 425.33,174.528L423.378,174.528L423.378,162.497L425.33,162.497C426.896,162.419 428.422,163.013 429.522,164.128C431.564,166.671 431.564,170.322 429.522,172.864L429.522,172.896Z" style="fill:rgb(208,208,208);fill-rule:nonzero;"/>
    </g>
</svg>
