<?xml version="1.0" encoding="UTF-8" standalone="no"?>
<!DOCTYPE svg PUBLIC "-//W3C//DTD SVG 1.1//EN" "http://www.w3.org/Graphics/SVG/1.1/DTD/svg11.dtd">
<svg width="100%" height="100%" viewBox="0 0 540 200" version="1.1" xmlns="http://www.w3.org/2000/svg" xmlns:xlink="http://www.w3.org/1999/xlink" xml:space="preserve" xmlns:serif="http://www.serif.com/" style="fill-rule:evenodd;clip-rule:evenodd;stroke-linejoin:round;stroke-miterlimit:2;">
    <g id="starz">
        <path id="path3887" d="M114.583,76.618L123.943,57.791C123.943,57.791 109.579,44.02 84.373,44.02C61.549,44.02 46.806,57.536 46.806,76.703C46.806,117.976 105.757,103.044 105.757,124.385C105.757,132.987 97.101,136.49 88.638,136.49C67.789,136.49 53.214,120.013 53.214,120.013L44,139.65C44,139.65 59.891,156.02 87.834,156.02C110.624,156.02 127.334,144.836 127.334,122.362C127.334,81.907 68.441,96.428 68.441,74.747C68.441,68.274 74.7,63.643 84.002,63.643C100.193,63.643 114.583,76.618 114.583,76.618Z" style="fill:rgb(208,208,208);fill-rule:nonzero;"/>
        <path id="path3889" d="M162.924,154.215L162.924,65.971L130.97,65.971L130.97,45.648L216.981,45.648L216.981,65.971L185.026,65.971L185.026,154.215L162.924,154.215Z" style="fill:rgb(208,208,208);fill-rule:nonzero;"/>
        <path id="path3891" d="M252.131,45.058L197.542,154.21L220.293,154.21L228.698,137.313L275.298,137.313L283.819,154.21L306.803,154.21L252.131,45.058ZM252.064,91.052L265.296,117.308L238.75,117.308L252.064,91.052Z" style="fill:rgb(208,208,208);fill-rule:nonzero;"/>
        <path id="path3895" d="M311.779,45.643L311.779,154.21L333.881,154.21L333.881,114.634L349.326,114.634L371.894,154.21L397.258,154.21L371.644,109.369C382.671,104.03 390.135,94.217 390.135,78.935C390.135,62.223 378.562,45.643 351.456,45.643L311.779,45.643ZM333.881,65.966L351.989,65.966C361.935,65.966 367.916,71.618 367.916,79.503C367.916,88.148 360.935,93.241 351.989,93.241L333.881,93.241L333.881,65.966Z" style="fill:rgb(208,208,208);fill-rule:nonzero;"/>
        <path id="path3899" d="M406.578,65.971L406.578,45.648L496,45.648L440.397,134.427L494.719,134.427L494.719,154.215L402.051,154.215L457.355,65.971L406.578,65.971Z" style="fill:rgb(208,208,208);fill-rule:nonzero;"/>
    </g>
</svg>
