<svg width="400" height="400" viewBox="0 0 400 400" fill="none" xmlns="http://www.w3.org/2000/svg">
<path d="M220.956 77.2262C221.371 66.0227 219.467 62.112 215.211 61.3941C221.05 53.315 232.266 52.084 237.144 52.4783C254.754 53.6455 253.897 74.8109 251.267 85.2477L244.89 118.172C242.608 130.439 243.027 136.311 245.302 139.544C242.569 141.815 240.58 143.33 236.711 144.109C230.52 145.356 224.383 139.369 222.65 136.09C221.399 133.724 222.143 135.219 220.868 131.853C219.195 127.44 219.374 122.296 218.892 118.493C218.227 113.248 218.467 114.746 216.947 109.257C214.377 99.9765 205.198 98.304 200.992 98.6274C188 99.8255 180.525 114.157 178.411 121.173C171.326 149.728 186.255 166.741 196.934 173.785C209.375 182.567 226.576 192.562 226.576 192.562C255.509 210.044 263.828 236.907 264.372 248.153C272.301 304.995 231.286 336.364 209.224 344.822C162.865 363.573 130.971 333.579 121.382 316.359C112.481 302.926 110.952 281.479 111.3 272.434C112.897 245.421 136.812 229.657 148.57 225.152C172.6 215.87 187.722 228.648 192.279 236.197C198.966 247.647 195.203 259.217 192.486 263.571C184.836 257.029 172.79 259.72 167.722 261.883C145.989 270.747 147.546 293.828 151.042 304.26C163.565 333.767 189.451 330.721 200.828 325.51C239.192 307.32 235.412 264.622 228.726 245.547C223.056 222.989 199.282 203.435 188.105 196.477C163.4 182.763 152.172 161.373 149.646 152.391C135.507 107.497 165.865 81.9337 182.811 74.7639C201.75 66.6208 216.132 73.0125 220.956 77.2262Z" fill="#00FFFF"/>
<path d="M235.667 82.7667C236.083 71.5633 234.178 67.6525 229.922 66.9346C235.762 58.8555 246.978 57.6245 251.856 58.0189C269.465 59.186 268.608 80.3514 265.978 90.7882L259.602 123.712C257.319 135.98 257.739 141.852 260.013 145.085C257.28 147.355 255.291 148.871 251.422 149.65C245.231 150.896 239.094 144.909 237.361 141.631C236.111 139.265 236.855 140.759 235.579 137.394C233.907 132.98 234.085 127.837 233.603 124.033C232.939 118.788 233.179 120.287 231.659 114.798C229.089 105.517 219.909 103.845 215.703 104.168C202.712 105.366 195.236 119.698 193.122 126.714C186.038 155.268 200.967 172.281 211.645 179.326C224.087 188.107 241.287 198.103 241.287 198.103C270.22 215.585 278.54 242.448 279.083 253.694C287.012 310.536 245.998 341.904 223.936 350.363C177.576 369.113 145.682 339.12 136.094 321.9C127.192 308.467 125.663 287.019 126.012 277.975C127.608 250.962 151.523 235.198 163.281 230.692C187.312 221.411 202.434 234.188 206.991 241.738C213.677 253.187 209.915 264.758 207.197 269.112C199.548 262.569 187.501 265.26 182.434 267.424C160.7 276.288 162.258 299.368 165.753 309.801C178.276 339.307 204.162 336.262 215.54 331.051C253.904 312.861 250.123 270.163 243.437 251.088C237.767 228.53 214.303 208.208 203.125 201.25C178.421 187.536 166.883 166.913 164.357 157.932C150.218 113.037 180.576 87.4742 197.522 80.3045C216.461 72.1613 230.843 78.553 235.667 82.7667Z" fill="#EF0800"/>
<path d="M228.312 77.4962C228.727 66.2928 226.822 62.382 222.567 61.6641C228.406 53.585 239.622 52.354 244.5 52.7483C262.11 53.9155 261.253 75.0809 258.623 85.5177L252.246 118.442C249.964 130.709 250.383 136.581 252.658 139.814C249.925 142.085 247.936 143.6 244.067 144.379C237.876 145.626 231.739 139.639 230.006 136.36C228.755 133.994 229.499 135.489 228.224 132.123C226.551 127.71 226.73 122.566 226.248 118.763C225.583 113.518 225.823 115.016 224.303 109.527C221.733 100.246 212.554 98.574 208.348 98.8975C195.356 100.096 187.881 114.427 185.767 121.443C178.682 149.998 193.611 167.011 204.289 174.055C216.731 182.837 233.932 192.832 233.932 192.832C262.865 210.314 271.184 237.177 271.728 248.423C279.657 305.265 238.642 336.634 216.58 345.092C170.221 363.843 138.327 333.849 128.738 316.629C119.837 303.196 118.308 281.749 118.656 272.704C120.253 245.691 144.168 229.927 155.926 225.422C179.956 216.14 195.078 228.918 199.635 236.467C206.322 247.917 202.559 259.487 199.842 263.841C192.192 257.299 180.146 259.99 175.078 262.153C153.345 271.017 154.902 294.098 158.398 304.53C170.921 334.037 196.807 330.991 208.184 325.78C246.548 307.59 242.768 264.892 236.082 245.817C230.412 223.26 206.638 203.705 195.46 196.747C170.756 183.034 159.528 161.643 157.002 152.661C142.863 107.767 173.221 82.2037 190.167 75.034C209.106 66.8908 223.488 73.2825 228.312 77.4962Z" fill="white"/>
</svg>
